Coordinates
nRows=5
nColumns=38

# SIMM Motion File Header:
name Coordinates
datacolumns 38
datarows 5
otherdata 1
range 0.99150000000000005000 0.99550000000000005000

Units are S.I. units (second, meters, Newtons, ...)
Angles are in degrees.

endheader
time	pelvis_tilt	pelvis_list	pelvis_rotation	pelvis_tx	pelvis_ty	pelvis_tz	hip_flexion_r	hip_adduction_r	hip_rotation_r	knee_angle_r	ankle_angle_r	subtalar_angle_r	mtp_angle_r	hip_flexion_l	hip_adduction_l	hip_rotation_l	knee_angle_l	ankle_angle_l	subtalar_angle_l	mtp_angle_l	lumbar_extension	lumbar_bending	lumbar_rotation	arm_flex_r	arm_add_r	arm_rot_r	elbow_flex_r	pro_sup_r	wrist_flex_r	wrist_dev_r	arm_flex_l	arm_add_l	arm_rot_l	elbow_flex_l	pro_sup_l	wrist_flex_l	wrist_dev_l
      0.99150000000000005000	     -5.84359648788371280000	      1.52832536175026010000	      3.36897487734202270000	      0.92956354481526859000	      1.01541301645637620000	     -0.30919484793049778000	     40.83721670737185100000	      2.64729935315901970000	      3.61114527744236470000	    -93.72383029274166700000	      3.13433206052335930000	      0.00000000000008547758	     -0.00000000000032629138	      4.07468202201501750000	      9.12633697168501360000	      8.71121506265769340000	    -30.81516046797130300000	     21.88533650904947300000	     -0.00000000000008360332	     -0.00000000000005531416	     -3.11924331243613120000	     -1.35552015182640620000	     -9.16673434315318580000	    -28.99697933977442300000	    -15.04634737488575200000	      1.42177306705533700000	    106.98822518400611000000	     91.49591185329980200000	     -0.00000000000000023556	      0.00000000000010279218	    -16.23739640449697000000	    -11.18250743048294600000	     -3.28010505104478110000	    126.61578055198515000000	     86.22077818650457500000	      0.00000000000004980384	     -0.00000000000002362271
      0.99250000000000005000	     -5.89078462329419050000	      1.44836943514372130000	      3.31126603817329950000	      0.92982384943476681000	      1.01614729366863980000	     -0.30904985742488905000	     40.98009365720041300000	      2.75905854785752290000	      3.64270429850446040000	    -93.33314910021236700000	      3.16608188031481760000	      0.00000000000008573903	     -0.00000000000032713099	      3.78440740999249760000	      8.99221972940749300000	      8.68363651571187130000	    -30.50826111647148400000	     21.52883084471465800000	     -0.00000000000008397169	     -0.00000000000005495924	     -3.00319562060492110000	     -1.27033419159174990000	     -9.21821292290377950000	    -29.13914448192501200000	    -15.07357420554048500000	      1.40989086424381370000	    107.13490035235952000000	     91.44059852130986600000	     -0.00000000000000024157	      0.00000000000010315506	    -16.19670535479499700000	    -11.15463896699952400000	     -3.22972286776391030000	    126.83313818501993000000	     86.24582314184164000000	      0.00000000000004988344	     -0.00000000000002379621
      0.99350000000000005000	     -5.93739965702165940000	      1.36827432336827660000	      3.25278835599537960000	      0.93008951164726827000	      1.01688878671842380000	     -0.30890138819488605000	     41.11813751682726800000	      2.87136343587771540000	      3.67401003996796760000	    -92.93606377436169900000	      3.19728333236260150000	      0.00000000000008600300	     -0.00000000000032797029	      3.49443505117197310000	      8.85716264250339340000	      8.65207911897912930000	    -30.20099973476465400000	     21.16093239371892000000	     -0.00000000000008433349	     -0.00000000000005461543	     -2.88736101248527930000	     -1.18512538059445950000	     -9.26771852591616610000	    -29.28199359718079700000	    -15.09906751635816500000	      1.39574690083783890000	    107.28055929903972000000	     91.38807909745472100000	     -0.00000000000000024800	      0.00000000000010351878	    -16.15723193438270800000	    -11.12614892458269500000	     -3.17851581889284910000	    127.04937431208430000000	     86.27392282914999600000	      0.00000000000004996266	     -0.00000000000002396134
      0.99450000000000005000	     -5.98345706778720210000	      1.28809886950765430000	      3.19366485752341630000	      0.93036029073727644000	      1.01763725805483980000	     -0.30874955732686604000	     41.25137496842794600000	      2.98408090391123260000	      3.70501754546122660000	    -92.53261869832330400000	      3.22781366997521730000	      0.00000000000008627452	     -0.00000000000032880912	      3.20486618660362940000	      8.72125764880582640000	      8.61660011222690870000	    -29.89347383347024200000	     20.78161942189840200000	     -0.00000000000008469108	     -0.00000000000005423851	     -2.77177591187459750000	     -1.09996808879378110000	     -9.31538785893106440000	    -29.42546903608624800000	    -15.12277057478006100000	      1.37938171594311080000	    107.42511145726451000000	     91.33815675173158900000	     -0.00000000000000025395	      0.00000000000010388203	    -16.11899580739774200000	    -11.09710027125655400000	     -3.12651185332581070000	    127.26448937464185000000	     86.30496177160080200000	      0.00000000000005004203	     -0.00000000000002413742
      0.99550000000000005000	     -6.02897399021059410000	      1.20790221183116840000	      3.13401951193354430000	      0.93063594125473814000	      1.01839246317888790000	     -0.30859449321455734000	     41.37983642890075200000	      3.09707545269535700000	      3.73568173150423810000	    -92.12285954318154800000	      3.25755349888420160000	      0.00000000000008655179	     -0.00000000000032964769	      2.91580394194831570000	      8.58459853183476440000	      8.57726293887178850000	    -29.58578103001983800000	     20.39088589953365000000	     -0.00000000000008506878	     -0.00000000000005376549	     -2.65647456967086980000	     -1.01493627656850240000	     -9.36135735709422610000	    -29.56951462620827800000	    -15.14462903475196100000	      1.36083611360061000000	    107.56847356425737000000	     91.29062649555602600000	     -0.00000000000000025983	      0.00000000000010424463	    -16.08201472609767900000	    -11.06755652409721700000	     -3.07373689644669580000	    127.47848587929006000000	     86.33881969295293900000	      0.00000000000005012139	     -0.00000000000002432345
